<svg width="30px" height="21px" viewBox="0 0 30 21" version="1.1" xmlns="http://www.w3.org/2000/svg" xmlns:xlink="http://www.w3.org/1999/xlink">
<g id="Page-1" stroke="none" stroke-width="1" fill="none" fill-rule="evenodd">
<g id="delivery-package-opened" fill="#000000" fill-rule="nonzero">
<path d="M14.9517593,6.46569606 L14.9517593,18.8829522 L24.7938196,17.0068629 L24.7938196,10.956779 C24.7938196,10.7035022 25.0134275,10.5067992 25.2639177,10.5356522 L26.4747513,10.7238372 C26.6877905,10.7484067 26.8486239,10.9295507 26.8486239,11.144964 L26.8486239,18.1734917 C26.8486239,18.3732967 26.7097513,18.5459228 26.5152905,18.5879222 L15.7414163,20.9147791 C15.2207789,21.0271878 14.6823965,21.0284188 14.161269,20.9183242 L3.50303201,18.6664557 C3.31175748,18.6260811 3.17313,18.4589697 3.16803196,18.2626605 L2.98376985,11.1245305 C2.97812997,10.9006484 3.14675745,10.7109371 3.36881631,10.6913406 L12.4223471,9.89226829 C12.5793569,9.8784326 12.7155825,9.77779154 12.7756315,9.63145825 L14.1395533,6.30434539 C14.3155337,5.87499603 14.9517593,6.00143745 14.9517593,6.46569606 Z M2.88151231,2.40017123 L0.0404334393,8.49998483 C-0.0983901116,8.79806751 0.139158945,9.13440759 0.465090368,9.10132011 L11.1347489,8.01844392 C11.2855332,8.00313111 11.4165627,7.90780768 11.4780332,7.76866304 L14.911122,0 L3.18754177,2.16289663 C3.05337508,2.187663 2.93935546,2.27604397 2.88151231,2.40017123 Z M14.911171,1.42108547e-14 L18.5438187,8.01150146 C18.6072991,8.15153237 18.7413187,8.24596954 18.8940638,8.2583281 L29.5435753,9.11855317 C29.8645067,9.144452 30.0949479,8.81436506 29.9613204,8.52012289 L27.1839671,2.40425793 C27.1265161,2.27776728 27.0110259,2.187663 26.8747513,2.1629951 L14.911171,1.42108547e-14 Z" id="Shape"></path>
  </g>
  </g>
  </svg>
