<svg width="229px" height="56px" viewBox="0 0 146 38" version="1.1" xmlns="http://www.w3.org/2000/svg" xmlns:xlink="http://www.w3.org/1999/xlink">
  <g id="Page-1" stroke="none" stroke-width="1" fill="none" fill-rule="evenodd">
    <g id="proroid-logo-2" fill-rule="nonzero">
      <g id="Group" transform="translate(81.000000, 17.000000)" fill="#C12026">
        <path d="M8.25,0.48 C8.67,0.66 9.02,0.93 9.32,1.28 C9.56,1.57 9.75,1.89 9.89,2.24 C10.03,2.59 10.1,2.99 10.1,3.44 C10.1,3.98 9.96,4.51 9.69,5.04 C9.42,5.56 8.97,5.93 8.34,6.15 C8.87,6.36 9.24,6.66 9.46,7.05 C9.68,7.44 9.79,8.03 9.79,8.83 L9.79,9.59 C9.79,10.11 9.81,10.46 9.85,10.65 C9.91,10.94 10.06,11.16 10.29,11.3 L10.29,11.59 L7.66,11.59 C7.59,11.34 7.54,11.13 7.51,10.98 C7.45,10.66 7.41,10.33 7.41,10 L7.39,8.94 C7.38,8.21 7.25,7.73 7.01,7.49 C6.77,7.25 6.32,7.13 5.65,7.13 L3.32,7.13 L3.32,11.59 L0.99,11.59 L0.99,0.2 L6.44,0.2 C7.24,0.2 7.84,0.3 8.25,0.48 Z M3.34,2.16 L3.34,5.22 L5.9,5.22 C6.41,5.22 6.79,5.16 7.04,5.03 C7.49,4.81 7.72,4.39 7.72,3.75 C7.72,3.06 7.5,2.6 7.07,2.36 C6.83,2.23 6.46,2.16 5.97,2.16 L3.34,2.16 L3.34,2.16 Z" id="Shape"></path>
        <path d="M15.54,6.45 C15.95,6.4 16.24,6.33 16.42,6.26 C16.74,6.13 16.89,5.92 16.89,5.63 C16.89,5.29 16.77,5.05 16.53,4.92 C16.29,4.79 15.93,4.72 15.46,4.72 C14.93,4.72 14.56,4.85 14.34,5.11 C14.18,5.3 14.08,5.56 14.03,5.88 L11.9,5.88 C11.95,5.14 12.15,4.54 12.52,4.07 C13.1,3.33 14.11,2.96 15.53,2.96 C16.46,2.96 17.28,3.14 18,3.51 C18.72,3.88 19.08,4.57 19.08,5.58 L19.08,9.44 C19.08,9.71 19.08,10.03 19.1,10.41 C19.12,10.7 19.16,10.89 19.23,11 C19.3,11.1 19.41,11.19 19.55,11.26 L19.55,11.58 L17.16,11.58 C17.09,11.41 17.05,11.25 17.02,11.1 C16.99,10.95 16.97,10.78 16.96,10.59 C16.65,10.92 16.3,11.2 15.9,11.43 C15.42,11.7 14.89,11.84 14.28,11.84 C13.51,11.84 12.88,11.62 12.38,11.19 C11.88,10.76 11.63,10.14 11.63,9.34 C11.63,8.3 12.03,7.55 12.84,7.09 C13.28,6.84 13.93,6.66 14.79,6.55 L15.54,6.45 Z M16.89,7.48 C16.75,7.57 16.61,7.64 16.46,7.69 C16.32,7.74 16.12,7.79 15.87,7.84 L15.37,7.93 C14.9,8.01 14.56,8.11 14.36,8.23 C14.01,8.43 13.84,8.74 13.84,9.16 C13.84,9.54 13.95,9.81 14.16,9.98 C14.37,10.15 14.63,10.23 14.93,10.23 C15.41,10.23 15.86,10.09 16.26,9.81 C16.67,9.53 16.88,9.03 16.89,8.29 L16.89,7.48 Z" id="Shape"></path>
        <path d="M20.14,4.79 L20.14,3.22 L21.32,3.22 L21.32,0.87 L23.5,0.87 L23.5,3.22 L24.87,3.22 L24.87,4.79 L23.5,4.79 L23.5,9.24 C23.5,9.58 23.54,9.8 23.63,9.88 C23.72,9.97 23.98,10.01 24.43,10.01 C24.5,10.01 24.57,10.01 24.64,10.01 C24.71,10.01 24.79,10 24.86,10 L24.86,11.65 L23.82,11.69 C22.78,11.73 22.07,11.55 21.69,11.15 C21.44,10.9 21.32,10.51 21.32,9.98 L21.32,4.8 L20.14,4.8 L20.14,4.79 Z" id="Path"></path>
        <path d="M31.76,3.32 C32.35,3.58 32.83,4 33.22,4.56 C33.56,5.06 33.79,5.64 33.89,6.3 C33.95,6.69 33.97,7.24 33.96,7.97 L27.83,7.97 C27.86,8.81 28.16,9.41 28.71,9.75 C29.05,9.96 29.45,10.07 29.92,10.07 C30.42,10.07 30.83,9.94 31.14,9.68 C31.31,9.54 31.46,9.35 31.59,9.1 L33.84,9.1 C33.78,9.6 33.51,10.11 33.02,10.62 C32.27,11.44 31.21,11.85 29.85,11.85 C28.73,11.85 27.74,11.5 26.88,10.81 C26.02,10.12 25.59,9 25.59,7.44 C25.59,5.98 25.98,4.86 26.75,4.08 C27.52,3.3 28.53,2.91 29.76,2.91 C30.51,2.93 31.17,3.06 31.76,3.32 Z M28.47,5.22 C28.16,5.54 27.96,5.98 27.88,6.52 L31.67,6.52 C31.63,5.94 31.44,5.49 31.08,5.19 C30.73,4.89 30.29,4.74 29.78,4.74 C29.22,4.74 28.78,4.9 28.47,5.22 Z" id="Shape"></path>
        <path d="M39.54,3.28 C39.94,3.5 40.26,3.81 40.51,4.21 L40.51,0.19 L42.74,0.19 L42.74,11.56 L40.6,11.56 L40.6,10.39 C40.29,10.89 39.93,11.25 39.53,11.48 C39.13,11.71 38.63,11.82 38.03,11.82 C37.05,11.82 36.22,11.42 35.55,10.63 C34.88,9.83 34.54,8.81 34.54,7.57 C34.54,6.13 34.87,5 35.53,4.18 C36.19,3.36 37.08,2.94 38.18,2.94 C38.69,2.95 39.14,3.06 39.54,3.28 Z M40.08,9.28 C40.41,8.82 40.57,8.22 40.57,7.48 C40.57,6.45 40.31,5.71 39.79,5.27 C39.47,5 39.1,4.87 38.68,4.87 C38.04,4.87 37.56,5.11 37.26,5.6 C36.96,6.09 36.81,6.69 36.81,7.41 C36.81,8.19 36.96,8.81 37.27,9.28 C37.58,9.75 38.04,9.98 38.67,9.98 C39.28,9.98 39.76,9.75 40.08,9.28 Z" id="Shape"></path>
      </g>
      <path d="M0.91,18.05 C0.91,17.48 1.02,16.93 1.24,16.42 C1.46,15.91 1.76,15.46 2.13,15.09 C2.51,14.71 2.95,14.41 3.46,14.2 C3.97,13.98 4.51,13.87 5.09,13.87 C5.68,13.87 6.22,13.98 6.73,14.2 C7.24,14.42 7.69,14.72 8.06,15.09 C8.44,15.47 8.74,15.91 8.95,16.42 C9.17,16.93 9.28,17.47 9.28,18.05 L9.28,27.88 C9.28,28.46 9.17,29.01 8.95,29.52 C8.73,30.03 8.43,30.48 8.06,30.85 C7.68,31.23 7.24,31.53 6.73,31.74 C6.22,31.96 5.67,32.07 5.09,32.07 C4.33,32.07 3.67,31.9 3.11,31.55 C2.55,31.21 2.09,30.76 1.73,30.21 L1.73,37.11 C1.73,37.24 1.7,37.35 1.64,37.44 C1.58,37.53 1.48,37.58 1.34,37.58 L1.31,37.58 C1.18,37.58 1.09,37.53 1.02,37.44 C0.95,37.35 0.92,37.24 0.92,37.11 L0.92,18.05 L0.91,18.05 Z M1.73,28.01 C1.74,28.46 1.84,28.88 2.02,29.27 C2.2,29.67 2.44,30.01 2.74,30.3 C3.04,30.59 3.39,30.83 3.79,31 C4.19,31.17 4.62,31.26 5.08,31.26 C5.55,31.26 5.99,31.17 6.4,30.99 C6.81,30.81 7.16,30.57 7.47,30.27 C7.77,29.97 8.01,29.61 8.19,29.19 C8.37,28.78 8.46,28.34 8.46,27.87 L8.46,18.04 C8.46,17.58 8.37,17.15 8.19,16.73 C8.01,16.32 7.77,15.96 7.47,15.65 C7.17,15.35 6.81,15.11 6.4,14.93 C5.99,14.75 5.55,14.66 5.08,14.66 C4.61,14.66 4.17,14.75 3.76,14.93 C3.35,15.11 3,15.35 2.7,15.65 C2.4,15.95 2.16,16.31 1.99,16.73 C1.81,17.14 1.72,17.58 1.72,18.04 L1.72,28.01 L1.73,28.01 Z" id="Shape" fill="#737272"></path>
      <path d="M12.35,18.37 C12.35,17.61 12.49,16.95 12.77,16.39 C13.05,15.83 13.4,15.36 13.83,14.99 C14.25,14.62 14.71,14.34 15.2,14.15 C15.69,13.96 16.14,13.87 16.55,13.87 C16.87,13.87 17.19,13.87 17.51,13.88 C17.83,13.89 18.09,13.9 18.29,13.92 C18.62,13.95 18.79,14.09 18.79,14.33 L18.79,14.35 C18.79,14.52 18.73,14.64 18.6,14.69 C18.47,14.75 18.35,14.76 18.22,14.74 C17.96,14.72 17.7,14.7 17.46,14.7 C17.22,14.69 16.97,14.69 16.7,14.69 C16.14,14.69 15.64,14.8 15.2,15.01 C14.76,15.22 14.39,15.5 14.09,15.84 C13.79,16.18 13.56,16.58 13.4,17.02 C13.25,17.46 13.17,17.91 13.17,18.37 L13.17,31.31 C13.17,31.45 13.12,31.56 13.03,31.65 C12.94,31.74 12.85,31.78 12.77,31.78 L12.7,31.78 C12.62,31.78 12.54,31.74 12.46,31.65 C12.38,31.56 12.34,31.45 12.34,31.31 L12.34,18.37 L12.35,18.37 Z" id="Path" fill="#737272"></path>
      <path d="M20.03,18.06 C20.03,17.49 20.14,16.94 20.36,16.43 C20.58,15.92 20.88,15.47 21.25,15.1 C21.63,14.72 22.07,14.42 22.58,14.2 C23.09,13.98 23.63,13.86 24.21,13.86 C24.8,13.86 25.34,13.97 25.85,14.19 C26.36,14.41 26.81,14.71 27.18,15.08 C27.56,15.46 27.86,15.9 28.07,16.41 C28.29,16.92 28.4,17.47 28.4,18.05 L28.4,27.88 C28.4,28.45 28.29,29 28.07,29.51 C27.85,30.02 27.55,30.47 27.18,30.84 C26.8,31.22 26.36,31.52 25.85,31.73 C25.34,31.95 24.79,32.06 24.21,32.06 C23.64,32.06 23.09,31.95 22.58,31.73 C22.07,31.51 21.62,31.21 21.25,30.84 C20.87,30.46 20.57,30.02 20.36,29.51 C20.14,29 20.03,28.46 20.03,27.88 L20.03,18.06 Z M20.85,27.89 C20.85,28.36 20.94,28.8 21.12,29.21 C21.3,29.62 21.54,29.97 21.83,30.28 C22.13,30.58 22.48,30.82 22.89,31 C23.3,31.18 23.74,31.27 24.21,31.27 C24.68,31.27 25.12,31.18 25.53,31 C25.94,30.82 26.29,30.58 26.6,30.28 C26.9,29.98 27.14,29.62 27.32,29.21 C27.5,28.8 27.59,28.36 27.59,27.89 L27.59,18.06 C27.59,17.59 27.5,17.15 27.32,16.73 C27.14,16.32 26.9,15.96 26.6,15.65 C26.3,15.35 25.94,15.11 25.53,14.93 C25.12,14.75 24.68,14.66 24.21,14.66 C23.74,14.66 23.3,14.75 22.89,14.93 C22.48,15.11 22.13,15.35 21.83,15.65 C21.53,15.95 21.29,16.31 21.12,16.73 C20.94,17.14 20.85,17.58 20.85,18.06 L20.85,27.89 Z" id="Shape" fill="#737272"></path>
      <path d="M30.99,19.32 C30.99,18.36 31.16,17.53 31.5,16.83 C31.84,16.14 32.27,15.57 32.79,15.13 C33.31,14.69 33.89,14.36 34.53,14.16 C35.17,13.95 35.78,13.85 36.36,13.85 C36.73,13.85 37.07,13.85 37.38,13.86 C37.7,13.87 37.97,13.9 38.2,13.95 C38.53,14.02 38.7,14.21 38.7,14.54 L38.7,16.12 C38.7,16.33 38.62,16.48 38.47,16.57 C38.32,16.66 38.15,16.7 37.96,16.69 C37.77,16.68 37.58,16.67 37.41,16.67 C37.24,16.67 37.06,16.67 36.86,16.67 C36.43,16.67 36.04,16.75 35.69,16.9 C35.35,17.06 35.06,17.27 34.82,17.54 C34.58,17.81 34.4,18.13 34.27,18.5 C34.14,18.87 34.08,19.27 34.08,19.7 L34.08,31.09 C34.08,31.33 34.01,31.51 33.86,31.62 C33.72,31.73 33.58,31.78 33.45,31.78 L31.43,31.78 C31.3,31.78 31.2,31.73 31.11,31.63 C31.02,31.53 30.98,31.4 30.98,31.23 L30.98,19.32 L30.99,19.32 Z" id="Path" fill="#FAA31B"></path>
      <path d="M39.65,18.7 C39.65,18.02 39.79,17.39 40.06,16.8 C40.34,16.21 40.71,15.7 41.19,15.26 C41.67,14.82 42.22,14.48 42.86,14.23 C43.5,13.98 44.18,13.85 44.9,13.85 C45.63,13.85 46.33,13.97 46.97,14.21 C47.62,14.45 48.18,14.79 48.67,15.22 C49.15,15.65 49.53,16.16 49.81,16.76 C50.09,17.36 50.22,18 50.22,18.7 L50.22,27.24 C50.22,27.95 50.08,28.6 49.81,29.19 C49.53,29.78 49.16,30.29 48.67,30.72 C48.19,31.15 47.63,31.49 46.98,31.73 C46.34,31.97 45.65,32.09 44.91,32.09 C44.19,32.09 43.5,31.97 42.86,31.73 C42.22,31.49 41.66,31.15 41.18,30.72 C40.7,30.29 40.33,29.78 40.05,29.19 C39.77,28.6 39.64,27.95 39.64,27.24 L39.64,18.7 L39.65,18.7 Z M42.75,27.17 C42.75,27.46 42.8,27.73 42.91,28 C43.02,28.26 43.17,28.5 43.37,28.7 C43.57,28.9 43.8,29.06 44.07,29.18 C44.34,29.3 44.63,29.36 44.94,29.36 C45.26,29.36 45.55,29.3 45.81,29.18 C46.07,29.06 46.3,28.9 46.5,28.7 C46.69,28.5 46.85,28.27 46.95,28 C47.06,27.74 47.11,27.46 47.11,27.17 L47.11,18.79 C47.11,18.5 47.06,18.22 46.95,17.96 C46.84,17.69 46.69,17.46 46.5,17.25 C46.31,17.05 46.07,16.89 45.81,16.77 C45.54,16.65 45.25,16.59 44.94,16.59 C44.62,16.59 44.33,16.65 44.06,16.77 C43.79,16.89 43.56,17.05 43.37,17.25 C43.18,17.45 43.02,17.68 42.92,17.95 C42.81,18.21 42.76,18.49 42.76,18.78 L42.76,27.17 L42.75,27.17 Z" id="Shape" fill="#FAA31B"></path>
      <path d="M52.5,14.64 C52.5,14.51 52.55,14.4 52.64,14.3 C52.73,14.2 52.86,14.15 53.02,14.15 L55.04,14.15 C55.2,14.15 55.33,14.2 55.44,14.3 C55.55,14.4 55.6,14.51 55.6,14.63 L55.6,31.24 C55.6,31.6 55.41,31.77 55.04,31.77 L53.02,31.77 C52.68,31.77 52.51,31.59 52.51,31.24 L52.51,14.64 L52.5,14.64 Z" id="Path" fill="#FAA31B"></path>
      <path d="M68.47,27.24 C68.47,27.95 68.33,28.6 68.06,29.19 C67.78,29.78 67.41,30.29 66.93,30.72 C66.45,31.15 65.89,31.49 65.25,31.73 C64.61,31.97 63.92,32.09 63.2,32.09 C62.45,32.09 61.76,31.97 61.12,31.73 C60.48,31.49 59.92,31.15 59.44,30.72 C58.96,30.29 58.59,29.78 58.31,29.19 C58.03,28.6 57.9,27.95 57.9,27.24 L57.9,18.7 C57.9,18 58.03,17.35 58.28,16.76 C58.53,16.16 58.88,15.65 59.31,15.22 C59.75,14.79 60.27,14.45 60.87,14.21 C61.47,13.97 62.12,13.85 62.82,13.85 C63.24,13.85 63.67,13.92 64.11,14.05 C64.55,14.18 64.96,14.36 65.37,14.59 L65.37,8.53 C65.37,8.37 65.41,8.24 65.49,8.13 C65.57,8.03 65.7,7.98 65.87,7.98 L67.95,7.98 C68.12,7.98 68.25,8.03 68.34,8.13 C68.43,8.23 68.47,8.37 68.47,8.53 L68.47,27.24 L68.47,27.24 Z M65.38,18.77 C65.38,18.48 65.33,18.21 65.22,17.94 C65.11,17.68 64.96,17.44 64.77,17.24 C64.58,17.04 64.34,16.88 64.08,16.76 C63.81,16.64 63.52,16.58 63.21,16.58 C62.89,16.58 62.6,16.64 62.33,16.76 C62.06,16.88 61.83,17.04 61.64,17.24 C61.45,17.44 61.29,17.68 61.19,17.95 C61.08,18.22 61.03,18.5 61.03,18.78 L61.03,27.16 C61.03,27.45 61.08,27.72 61.19,27.99 C61.3,28.25 61.45,28.49 61.64,28.69 C61.83,28.89 62.07,29.05 62.33,29.17 C62.6,29.29 62.89,29.35 63.21,29.35 C63.52,29.35 63.81,29.29 64.08,29.17 C64.35,29.05 64.58,28.89 64.77,28.69 C64.96,28.49 65.12,28.26 65.22,27.99 C65.33,27.73 65.38,27.45 65.38,27.16 L65.38,18.77 Z" id="Shape" fill="#FAA31B"></path>
      <polygon id="Path" fill="#C12026" points="122 10.66 122.7 12.08 124.27 12.3 123.13 13.41 123.4 14.97 122 14.23 120.6 14.97 120.87 13.41 119.74 12.3 121.3 12.08"></polygon>
      <g id="Group" transform="translate(95.000000, 32.000000)" fill="#737272">
        <path d="M0.65,1.36 L0.65,0.8 L1.06,0.8 L1.06,1.36 L0.65,1.36 Z M0.67,5.3 L0.67,2.07 L1.04,2.07 L1.04,5.3 L0.67,5.3 Z" id="Shape"></path>
        <path d="M2.37,5.3 L2,5.3 L2,2.07 L2.37,2.07 L2.37,2.52 C2.52,2.36 2.67,2.23 2.83,2.13 C2.99,2.03 3.18,1.98 3.41,1.98 C3.61,1.98 3.79,2.01 3.97,2.08 C4.14,2.15 4.28,2.27 4.4,2.44 C4.48,2.56 4.53,2.68 4.54,2.8 C4.55,2.92 4.56,3.05 4.56,3.18 L4.56,5.29 L4.19,5.29 L4.19,3.18 C4.19,2.89 4.13,2.67 4,2.53 C3.87,2.38 3.66,2.31 3.36,2.31 C3.24,2.31 3.14,2.33 3.04,2.36 C2.94,2.4 2.86,2.44 2.78,2.5 C2.7,2.56 2.64,2.62 2.58,2.7 C2.53,2.78 2.48,2.85 2.46,2.94 C2.42,3.04 2.4,3.14 2.39,3.24 C2.38,3.34 2.38,3.44 2.38,3.55 L2.38,5.3 L2.37,5.3 Z" id="Path"></path>
        <path d="M10.44,2.11 C10.35,1.73 10.19,1.46 9.95,1.29 C9.71,1.13 9.4,1.05 9.02,1.05 C8.75,1.05 8.52,1.1 8.32,1.21 C8.13,1.32 7.96,1.46 7.84,1.65 C7.71,1.83 7.62,2.04 7.56,2.28 C7.5,2.52 7.47,2.77 7.47,3.04 C7.47,3.29 7.5,3.53 7.55,3.78 C7.6,4.02 7.69,4.24 7.81,4.43 C7.93,4.62 8.09,4.77 8.3,4.89 C8.5,5.01 8.76,5.06 9.07,5.06 C9.26,5.06 9.44,5.03 9.59,4.97 C9.75,4.91 9.89,4.82 10,4.71 C10.12,4.6 10.22,4.47 10.3,4.32 C10.38,4.17 10.44,4.01 10.48,3.83 L10.92,3.83 C10.87,4.05 10.8,4.25 10.7,4.44 C10.6,4.63 10.48,4.8 10.32,4.95 C10.16,5.1 9.97,5.21 9.75,5.3 C9.53,5.39 9.27,5.43 8.97,5.43 C8.62,5.43 8.33,5.37 8.08,5.24 C7.83,5.11 7.63,4.94 7.48,4.73 C7.32,4.51 7.21,4.26 7.14,3.98 C7.07,3.7 7.03,3.39 7.03,3.07 C7.03,2.64 7.08,2.28 7.19,1.98 C7.3,1.68 7.44,1.44 7.63,1.25 C7.82,1.06 8.04,0.92 8.29,0.84 C8.54,0.75 8.82,0.71 9.12,0.71 C9.35,0.71 9.56,0.74 9.76,0.8 C9.96,0.86 10.13,0.95 10.28,1.07 C10.43,1.19 10.56,1.34 10.65,1.52 C10.75,1.7 10.81,1.9 10.85,2.13 L10.44,2.13 L10.44,2.11 Z" id="Path"></path>
        <path d="M13.19,3.42 C13.26,3.41 13.34,3.4 13.44,3.38 C13.54,3.36 13.62,3.34 13.68,3.31 C13.74,3.28 13.78,3.23 13.8,3.16 C13.81,3.09 13.82,3.03 13.82,2.97 C13.82,2.78 13.76,2.62 13.64,2.5 C13.52,2.38 13.31,2.32 13.02,2.32 C12.89,2.32 12.77,2.33 12.66,2.35 C12.55,2.37 12.46,2.41 12.38,2.47 C12.3,2.53 12.23,2.6 12.18,2.69 C12.13,2.78 12.09,2.9 12.08,3.04 L11.7,3.04 C11.71,2.85 11.76,2.69 11.83,2.55 C11.91,2.42 12,2.3 12.12,2.22 C12.24,2.13 12.38,2.07 12.53,2.03 C12.69,1.99 12.85,1.97 13.03,1.97 C13.19,1.97 13.34,1.99 13.49,2.02 C13.63,2.05 13.76,2.11 13.86,2.19 C13.97,2.27 14.05,2.37 14.11,2.5 C14.17,2.63 14.2,2.79 14.2,2.97 L14.2,4.73 C14.2,4.88 14.23,4.97 14.28,5.01 C14.33,5.05 14.44,5.04 14.59,4.98 L14.59,5.27 C14.56,5.28 14.52,5.29 14.46,5.31 C14.4,5.33 14.35,5.33 14.29,5.33 C14.23,5.33 14.18,5.32 14.12,5.31 C14.06,5.3 14.01,5.28 13.97,5.25 C13.93,5.22 13.9,5.18 13.88,5.14 C13.86,5.1 13.84,5.05 13.83,5 C13.82,4.95 13.82,4.89 13.82,4.84 C13.66,5.01 13.48,5.15 13.28,5.24 C13.08,5.33 12.86,5.38 12.62,5.38 C12.48,5.38 12.34,5.36 12.21,5.32 C12.08,5.28 11.96,5.22 11.86,5.15 C11.76,5.07 11.68,4.97 11.62,4.86 C11.56,4.75 11.53,4.61 11.53,4.45 C11.53,3.9 11.91,3.58 12.66,3.48 L13.19,3.42 Z M13.81,3.6 C13.65,3.67 13.49,3.71 13.33,3.73 C13.17,3.75 13.01,3.77 12.84,3.78 C12.55,3.8 12.33,3.87 12.17,3.97 C12.01,4.08 11.93,4.24 11.93,4.46 C11.93,4.56 11.95,4.65 11.99,4.72 C12.03,4.79 12.08,4.85 12.15,4.9 C12.21,4.95 12.29,4.98 12.37,5.01 C12.46,5.03 12.54,5.04 12.63,5.04 C12.78,5.04 12.93,5.02 13.07,4.98 C13.21,4.94 13.34,4.89 13.45,4.81 C13.56,4.73 13.65,4.64 13.71,4.52 C13.78,4.4 13.81,4.26 13.81,4.1 L13.81,3.6 Z" id="Shape"></path>
        <path d="M15.54,5.3 L15.17,5.3 L15.17,2.07 L15.54,2.07 L15.54,2.52 C15.69,2.36 15.84,2.23 16,2.13 C16.16,2.03 16.35,1.98 16.58,1.98 C16.78,1.98 16.96,2.01 17.14,2.08 C17.31,2.15 17.45,2.27 17.57,2.44 C17.65,2.56 17.7,2.68 17.71,2.8 C17.72,2.92 17.73,3.05 17.73,3.18 L17.73,5.29 L17.36,5.29 L17.36,3.18 C17.36,2.89 17.3,2.67 17.17,2.53 C17.04,2.38 16.83,2.31 16.53,2.31 C16.41,2.31 16.31,2.33 16.21,2.36 C16.11,2.4 16.03,2.44 15.95,2.5 C15.87,2.56 15.81,2.62 15.75,2.7 C15.7,2.78 15.65,2.85 15.63,2.94 C15.59,3.04 15.57,3.14 15.56,3.24 C15.55,3.34 15.55,3.44 15.55,3.55 L15.55,5.3 L15.54,5.3 Z" id="Path"></path>
        <path d="M20.12,3.42 C20.19,3.41 20.27,3.4 20.37,3.38 C20.47,3.36 20.55,3.34 20.61,3.31 C20.67,3.28 20.71,3.23 20.73,3.16 C20.74,3.09 20.75,3.03 20.75,2.97 C20.75,2.78 20.69,2.62 20.57,2.5 C20.45,2.38 20.24,2.32 19.95,2.32 C19.82,2.32 19.7,2.33 19.59,2.35 C19.48,2.37 19.39,2.41 19.31,2.47 C19.23,2.53 19.16,2.6 19.11,2.69 C19.06,2.78 19.02,2.9 19.01,3.04 L18.63,3.04 C18.64,2.85 18.69,2.69 18.76,2.55 C18.84,2.42 18.93,2.3 19.05,2.22 C19.17,2.13 19.31,2.07 19.46,2.03 C19.62,1.99 19.78,1.97 19.96,1.97 C20.12,1.97 20.27,1.99 20.42,2.02 C20.56,2.05 20.69,2.11 20.79,2.19 C20.9,2.27 20.98,2.37 21.04,2.5 C21.1,2.63 21.13,2.79 21.13,2.97 L21.13,4.73 C21.13,4.88 21.16,4.97 21.21,5.01 C21.26,5.05 21.37,5.04 21.52,4.98 L21.52,5.27 C21.49,5.28 21.45,5.29 21.39,5.31 C21.33,5.33 21.28,5.33 21.22,5.33 C21.16,5.33 21.11,5.32 21.05,5.31 C20.99,5.3 20.94,5.28 20.9,5.25 C20.86,5.22 20.83,5.18 20.81,5.14 C20.79,5.1 20.77,5.05 20.76,5 C20.75,4.95 20.75,4.89 20.75,4.84 C20.59,5.01 20.41,5.15 20.21,5.24 C20.01,5.33 19.79,5.38 19.55,5.38 C19.41,5.38 19.27,5.36 19.14,5.32 C19.01,5.28 18.89,5.22 18.79,5.15 C18.69,5.07 18.61,4.97 18.55,4.86 C18.49,4.75 18.46,4.61 18.46,4.45 C18.46,3.9 18.84,3.58 19.59,3.48 L20.12,3.42 Z M20.75,3.6 C20.59,3.67 20.43,3.71 20.27,3.73 C20.11,3.75 19.95,3.77 19.78,3.78 C19.49,3.8 19.27,3.87 19.11,3.97 C18.95,4.08 18.87,4.24 18.87,4.46 C18.87,4.56 18.89,4.65 18.93,4.72 C18.97,4.79 19.02,4.85 19.09,4.9 C19.15,4.95 19.23,4.98 19.31,5.01 C19.4,5.03 19.48,5.04 19.57,5.04 C19.72,5.04 19.87,5.02 20.01,4.98 C20.15,4.94 20.28,4.89 20.39,4.81 C20.5,4.73 20.59,4.64 20.65,4.52 C20.72,4.4 20.75,4.26 20.75,4.1 L20.75,3.6 Z" id="Shape"></path>
        <path d="M24.59,0.81 L24.96,0.81 L24.96,5.3 L24.59,5.3 L24.59,4.73 L24.58,4.73 C24.53,4.84 24.46,4.93 24.37,5.01 C24.28,5.09 24.19,5.16 24.09,5.21 C23.99,5.26 23.88,5.31 23.78,5.33 C23.67,5.36 23.57,5.37 23.46,5.37 C23.2,5.37 22.98,5.33 22.79,5.24 C22.61,5.15 22.46,5.03 22.34,4.88 C22.22,4.73 22.14,4.55 22.08,4.34 C22.03,4.13 22,3.91 22,3.67 C22,3.45 22.03,3.23 22.09,3.02 C22.15,2.81 22.24,2.63 22.35,2.47 C22.47,2.31 22.62,2.19 22.8,2.1 C22.98,2.01 23.19,1.96 23.44,1.96 C23.67,1.96 23.89,2.01 24.1,2.11 C24.31,2.21 24.47,2.36 24.6,2.56 L24.6,0.81 L24.59,0.81 Z M24.59,3.67 C24.59,3.49 24.56,3.31 24.51,3.15 C24.46,2.99 24.39,2.84 24.29,2.72 C24.2,2.6 24.08,2.5 23.95,2.43 C23.82,2.36 23.66,2.32 23.49,2.32 C23.29,2.32 23.13,2.36 22.98,2.44 C22.83,2.52 22.72,2.62 22.63,2.75 C22.54,2.88 22.47,3.04 22.43,3.21 C22.39,3.38 22.37,3.58 22.38,3.78 C22.38,3.98 22.41,4.16 22.46,4.32 C22.52,4.48 22.59,4.61 22.69,4.72 C22.79,4.83 22.91,4.91 23.04,4.97 C23.17,5.03 23.32,5.05 23.48,5.05 C23.65,5.05 23.81,5.01 23.95,4.94 C24.09,4.87 24.2,4.77 24.29,4.65 C24.38,4.53 24.45,4.38 24.5,4.21 C24.57,4.05 24.59,3.87 24.59,3.67 Z" id="Shape"></path>
        <path d="M27.39,3.42 C27.46,3.41 27.54,3.4 27.64,3.38 C27.74,3.36 27.82,3.34 27.88,3.31 C27.94,3.28 27.98,3.23 28,3.16 C28.01,3.09 28.02,3.03 28.02,2.97 C28.02,2.78 27.96,2.62 27.84,2.5 C27.72,2.38 27.51,2.32 27.22,2.32 C27.09,2.32 26.97,2.33 26.86,2.35 C26.75,2.37 26.66,2.41 26.58,2.47 C26.5,2.53 26.43,2.6 26.38,2.69 C26.33,2.78 26.29,2.9 26.28,3.04 L25.9,3.04 C25.91,2.85 25.96,2.69 26.03,2.55 C26.11,2.42 26.2,2.3 26.32,2.22 C26.44,2.13 26.58,2.07 26.73,2.03 C26.89,1.99 27.05,1.97 27.23,1.97 C27.39,1.97 27.54,1.99 27.69,2.02 C27.83,2.05 27.96,2.11 28.06,2.19 C28.17,2.27 28.25,2.37 28.31,2.5 C28.37,2.63 28.4,2.79 28.4,2.97 L28.4,4.73 C28.4,4.88 28.43,4.97 28.48,5.01 C28.53,5.05 28.64,5.04 28.79,4.98 L28.79,5.27 C28.76,5.28 28.72,5.29 28.66,5.31 C28.6,5.33 28.55,5.33 28.49,5.33 C28.43,5.33 28.38,5.32 28.32,5.31 C28.26,5.3 28.21,5.28 28.17,5.25 C28.13,5.22 28.1,5.18 28.08,5.14 C28.06,5.1 28.04,5.05 28.03,5 C28.02,4.95 28.02,4.89 28.02,4.84 C27.86,5.01 27.68,5.15 27.48,5.24 C27.28,5.33 27.06,5.38 26.82,5.38 C26.68,5.38 26.54,5.36 26.41,5.32 C26.28,5.28 26.16,5.22 26.06,5.15 C25.96,5.07 25.88,4.97 25.82,4.86 C25.76,4.75 25.73,4.61 25.73,4.45 C25.73,3.9 26.11,3.58 26.86,3.48 L27.39,3.42 Z M28.02,3.6 C27.86,3.67 27.7,3.71 27.54,3.73 C27.38,3.75 27.22,3.77 27.05,3.78 C26.76,3.8 26.54,3.87 26.38,3.97 C26.22,4.08 26.14,4.24 26.14,4.46 C26.14,4.56 26.16,4.65 26.2,4.72 C26.24,4.79 26.29,4.85 26.36,4.9 C26.42,4.95 26.5,4.98 26.58,5.01 C26.67,5.03 26.75,5.04 26.84,5.04 C26.99,5.04 27.14,5.02 27.28,4.98 C27.42,4.94 27.55,4.89 27.66,4.81 C27.77,4.73 27.86,4.64 27.92,4.52 C27.99,4.4 28.02,4.26 28.02,4.1 L28.02,3.6 Z" id="Shape"></path>
      </g>
      <g id="Group" transform="translate(53.875000, 5.500000) scale(-1, 1) rotate(-180.000000) translate(-53.875000, -5.500000) translate(47.000000, 0.500000)" fill="#FAA31B">
        <g id="Path">
          <g>
            <path d="M7.15,0.5 C9.225,0.4625 10.25,0.0375 10.4375,0.2 C10.6,0.3375 9.5,1.05 9.675,1.2125 C9.85,1.3875 12.5125,2.8125 12.5125,3.0375"></path>
            <path d="M12.5125,3.0375 C12.5125,3.25 11.6,3.2 11.525,3.35 C11.45,3.5125 12.5375,4.8 12.375,5.0875 C12.2125,5.375 10.775,4.725 10.675,4.8625 C10.5875,5.0125 10.7625,5.9625 10.6125,6.0875 C10.45,6.2 8.9625,4.5375 8.75,4.7375 C8.5375,4.9375 9.2375,8.05 9.0875,8.1125 C8.9375,8.175 8.0125,7.6875 7.8875,7.7125 C7.775,7.7375 7.0375,9.6375 6.825,9.6375 C6.6125,9.6375 5.875,7.7375 5.7625,7.7125 C5.65,7.6875 4.7125,8.175 4.5625,8.1125 C4.4125,8.05 5.1125,4.9375 4.9,4.7375 C4.6875,4.5375 3.1875,6.2125 3.0375,6.0875 C2.875,5.975 3.0625,5.0125 2.975,4.8625 C2.8875,4.7125 1.4375,5.375 1.275,5.0875 C1.1125,4.8 2.2,3.5125 2.125,3.35 C2.05,3.1875 1.1375,3.25 1.1375,3.0375 C1.1375,2.825 3.8,1.3875 3.975,1.2125 C4.15,1.05 3.05,0.325 3.2125,0.2 C3.4,0.0375 2.9,0.4625 4.975,0.5"></path>
          </g>
        </g>
      </g>
      <g id="Group" transform="translate(128.000000, 13.000000)">
        <path d="M17.69,3.61 L17.66,3.6 C14.7,3.02 11.91,1.82 9.35,0.06 C9.23,-0.02 9.07,-0.02 8.95,0.06 C6.41,1.82 3.63,3.01 0.69,3.59 L0.61,3.61 C0.43,3.65 0.3,3.82 0.3,4.03 L0.3,9.64 C0.3,12.5 1.17,15.29 2.76,17.52 C4.35,19.74 6.59,21.31 9.06,21.92 C9.09,21.93 9.11,21.93 9.14,21.93 C9.17,21.93 9.19,21.93 9.22,21.92 C11.7,21.31 13.93,19.74 15.52,17.52 C17.11,15.29 17.98,12.5 17.98,9.64 L17.98,4.04 C18,3.83 17.87,3.65 17.69,3.61 Z M17.24,9.63 C17.24,15.06 13.84,19.85 9.15,21.06 C4.46,19.85 1.06,15.07 1.06,9.64 L1.06,4.39 C3.93,3.79 6.65,2.63 9.15,0.93 C11.65,2.62 14.37,3.79 17.24,4.39 L17.24,9.63 Z" id="Shape" fill="#C12026"></path>
        <path d="M6.49,8.99 L6.49,7.98 C6.96,7.96 7.28,7.93 7.47,7.89 C7.77,7.82 8.01,7.69 8.19,7.5 C8.32,7.37 8.41,7.19 8.48,6.96 C8.52,6.83 8.54,6.73 8.54,6.66 L9.77,6.66 L9.77,14.17 L8.26,14.17 L8.26,8.99 L6.49,8.99 Z" id="Path" fill="#C12026"></path>
        <g transform="translate(1.000000, 3.000000)" fill="#D86464" id="Path">
          <path d="M5.71,0.87 C4.22,1.65 2.64,2.26 1.03,2.67 C0.87,2.71 0.76,2.86 0.76,3.04 L0.76,6.6 C0.76,7.01 0.79,7.43 0.84,7.84 C0.86,8.03 1.01,8.17 1.18,8.17 C1.2,8.17 1.21,8.17 1.23,8.17 C1.42,8.14 1.55,7.95 1.53,7.74 C1.48,7.37 1.46,6.98 1.46,6.61 L1.46,3.35 C3.03,2.93 4.56,2.33 6.02,1.57 C6.19,1.48 6.27,1.25 6.18,1.06 C6.08,0.86 5.88,0.78 5.71,0.87 Z"></path>
          <path d="M0.75,3.34 L0.75,6.9 C0.75,8.71 1.23,10.49 2.14,12.02 C3.04,13.54 4.3,14.74 5.78,15.48 C5.83,15.5 5.88,15.51 5.92,15.51 C6.05,15.51 6.18,15.43 6.23,15.29 C6.31,15.1 6.23,14.87 6.06,14.79 C3.25,13.37 1.43,10.27 1.43,6.89 L1.43,3.33 C1.43,3.12 1.28,2.95 1.08,2.95 C0.88,2.95 0.75,3.13 0.75,3.34 Z"></path>
        </g>
        <g transform="translate(10.000000, 8.000000)" fill="#C12026" id="Path">
          <path d="M1.47,2.48 C1.48,2.6 1.51,2.68 1.56,2.73 C1.64,2.82 1.79,2.86 2.01,2.86 C2.14,2.86 2.24,2.84 2.32,2.8 C2.4,2.76 2.44,2.7 2.44,2.63 C2.44,2.56 2.41,2.5 2.35,2.46 C2.29,2.42 2.06,2.36 1.66,2.26 C1.38,2.19 1.17,2.1 1.06,2 C0.94,1.9 0.88,1.74 0.88,1.55 C0.88,1.32 0.97,1.12 1.15,0.95 C1.33,0.78 1.59,0.7 1.92,0.7 C2.23,0.7 2.49,0.76 2.69,0.89 C2.89,1.01 3,1.23 3.03,1.54 L2.37,1.54 C2.36,1.46 2.34,1.39 2.3,1.34 C2.23,1.25 2.1,1.21 1.93,1.21 C1.79,1.21 1.69,1.23 1.62,1.28 C1.56,1.32 1.53,1.38 1.53,1.44 C1.53,1.52 1.56,1.57 1.63,1.6 C1.69,1.64 1.92,1.7 2.31,1.78 C2.57,1.84 2.77,1.93 2.9,2.06 C3.03,2.19 3.09,2.34 3.09,2.53 C3.09,2.78 3,2.98 2.81,3.14 C2.62,3.3 2.34,3.38 1.95,3.38 C1.56,3.38 1.26,3.3 1.08,3.13 C0.89,2.96 0.8,2.75 0.8,2.49 L1.47,2.49 L1.47,2.48 Z"></path>
          <path d="M3.32,1.27 L3.32,0.8 L3.67,0.8 L3.67,0.1 L4.32,0.1 L4.32,0.8 L4.73,0.8 L4.73,1.27 L4.32,1.27 L4.32,2.6 C4.32,2.7 4.33,2.77 4.36,2.79 C4.39,2.82 4.46,2.83 4.6,2.83 C4.62,2.83 4.64,2.83 4.66,2.83 C4.68,2.83 4.7,2.83 4.72,2.83 L4.72,3.32 L4.41,3.33 C4.1,3.34 3.89,3.29 3.78,3.17 C3.71,3.09 3.67,2.98 3.67,2.82 L3.67,1.27 L3.32,1.27 L3.32,1.27 Z"></path>
        </g>
      </g>
      <polygon id="Path" fill="#C12026" points="117.71 10.66 118.41 12.08 119.98 12.3 118.85 13.41 119.11 14.97 117.71 14.23 116.31 14.97 116.58 13.41 115.45 12.3 117.01 12.08"></polygon>
      <polygon id="Path" fill="#C12026" points="113.43 10.66 114.13 12.08 115.69 12.3 114.56 13.41 114.83 14.97 113.43 14.23 112.03 14.97 112.29 13.41 111.16 12.3 112.73 12.08"></polygon>
      <polygon id="Path" fill="#C12026" points="109.14 10.66 109.84 12.08 111.4 12.3 110.27 13.41 110.54 14.97 109.14 14.23 107.74 14.97 108.01 13.41 106.87 12.3 108.44 12.08"></polygon>
      <polygon id="Path" fill="#C12026" points="104.85 10.66 105.55 12.08 107.12 12.3 105.98 13.41 106.25 14.97 104.85 14.23 103.45 14.97 103.72 13.41 102.59 12.3 104.15 12.08"></polygon>
    </g>
  </g>
</svg>
